HIERARCHY
ROOT root
{
	OFFSET 0.000000 0.000000 0.000000
	CHANNELS 6 Xposition Yposition Zposition Zrotation Yrotation Xrotation
	JOINT lhip
	{
		OFFSET 0.058581 -0.082280 -0.017664
		CHANNELS 3 Zrotation Yrotation Xrotation
		JOINT lknee
		{
			OFFSET 0.043451 -0.386469 0.008037
			CHANNELS 3 Zrotation Yrotation Xrotation
			JOINT lankle
			{
				OFFSET -0.014790 -0.426874 -0.037428
				CHANNELS 3 Zrotation Yrotation Xrotation
				JOINT ltoe
				{
					OFFSET 0.041054 -0.060286 0.122042
					CHANNELS 3 Zrotation Yrotation Xrotation
					End Site
					{
						OFFSET 0.000000 0.000000 0.000000
					}
				}
			}
		}
	}
	JOINT rhip
	{
		OFFSET -0.060310 -0.090513 -0.013543
		CHANNELS 3 Zrotation Yrotation Xrotation
		JOINT rknee
		{
			OFFSET -0.043257 -0.383688 -0.004843
			CHANNELS 3 Zrotation Yrotation Xrotation
			JOINT rankle
			{
				OFFSET 0.019056 -0.420046 -0.034562
				CHANNELS 3 Zrotation Yrotation Xrotation
				JOINT rtoe
				{
					OFFSET -0.034840 -0.062106 0.130323
					CHANNELS 3 Zrotation Yrotation Xrotation
					End Site
					{
						OFFSET 0.000000 0.000000 0.000000
					}
				}
			}
		}
	}
	JOINT lowerback
	{
		OFFSET 0.004439 0.124404 -0.038385
		CHANNELS 3 Zrotation Yrotation Xrotation
		JOINT upperback
		{
			OFFSET 0.004488 0.137956 0.026820
			CHANNELS 3 Zrotation Yrotation Xrotation
			JOINT chest
			{
				OFFSET -0.002265 0.056032 0.002855
				CHANNELS 3 Zrotation Yrotation Xrotation
				JOINT lowerneck
				{
					OFFSET -0.013390 0.211636 -0.033468
					CHANNELS 3 Zrotation Yrotation Xrotation
					JOINT upperneck
					{
						OFFSET 0.010113 0.088937 0.050410
						CHANNELS 3 Zrotation Yrotation Xrotation
						End Site
						{
							OFFSET 0.000000 0.000000 0.000000
						}
					}
				}
				JOINT lclavicle
				{
					OFFSET 0.071702 0.114000 -0.018898
					CHANNELS 3 Zrotation Yrotation Xrotation
					JOINT lshoulder
					{
						OFFSET 0.122921 0.045205 -0.019046
						CHANNELS 3 Zrotation Yrotation Xrotation
						JOINT lelbow
						{
							OFFSET 0.255332 -0.015649 -0.022946
							CHANNELS 3 Zrotation Yrotation Xrotation
							JOINT lwrist
							{
								OFFSET 0.265709 0.012698 -0.007375
								CHANNELS 3 Zrotation Yrotation Xrotation
								End Site
								{
									OFFSET 0.000000 0.000000 0.000000
								}
							}
						}
					}
				}
				JOINT rclavicle
				{
					OFFSET -0.082954 0.112472 -0.023707
					CHANNELS 3 Zrotation Yrotation Xrotation
					JOINT rshoulder
					{
						OFFSET -0.113228 0.046853 -0.008472
						CHANNELS 3 Zrotation Yrotation Xrotation
						JOINT relbow
						{
							OFFSET -0.260127 -0.014369 -0.031269
							CHANNELS 3 Zrotation Yrotation Xrotation
							JOINT rwrist
							{
								OFFSET -0.269108 0.006794 -0.006027
								CHANNELS 3 Zrotation Yrotation Xrotation
								End Site
								{
									OFFSET 0.000000 0.000000 0.000000
								}
							}
						}
					}
				}
			}
		}
	}
}
MOTION
Frames: 14
Frame Time: 0.033333
-1.183933 0.347597 1.000262 97.574611 0.026774 83.577852 -3.339795 2.695385 13.233086 -4.214248 -19.632558 9.282633 7.331264 10.290879 -20.779983 0.000000 -0.000000 0.000000 -3.868480 -3.113656 -26.569168 0.100779 -9.732244 10.332868 11.211366 -9.399455 -3.521333 0.000000 -0.000000 0.000000 -1.284354 -5.456400 18.064116 0.144318 -2.698971 -2.692400 -0.277385 -2.995315 5.165805 6.466866 2.419192 -10.371418 1.599504 -4.365779 4.802742 -24.149806 9.618517 -1.051762 -53.600168 -11.073929 7.640933 9.516419 -40.616158 4.816728 -0.219845 -4.170427 -3.140795 29.563826 -6.153071 -3.234055 58.774334 -1.309906 9.612502 -15.786676 9.573909 -12.689439 6.076177 0.683788 -2.120355 
-1.161321 0.346858 0.996977 97.535535 -0.057938 83.920692 -3.059393 3.012618 14.430306 -4.188141 -20.169421 9.202395 7.459923 10.726921 -21.081201 0.000000 -0.000000 0.000000 -4.273447 -3.193004 -27.656978 0.155324 -10.604767 10.459848 11.234528 -10.319865 -3.701368 0.000000 -0.000000 0.000000 -1.163378 -5.669092 18.225416 0.170559 -2.081224 -2.625633 -0.047723 -3.031927 5.258658 6.641520 2.329857 -10.993894 1.656934 -4.276942 4.627805 -24.375702 9.811518 -1.039706 -54.119246 -10.729812 7.749697 9.142346 -39.319627 5.576359 -0.322174 -4.229936 -2.736756 29.310319 -6.090255 -3.167615 58.333953 -1.572473 9.381989 -15.529979 8.906456 -12.995367 5.812279 0.655448 -2.039424 
-1.137901 0.345428 0.994402 97.686775 0.011110 84.230238 -2.370653 3.498604 15.904879 -4.028433 -20.935782 8.934382 7.197589 10.612432 -20.738371 0.000000 -0.000000 0.000000 -4.616941 -2.914263 -28.574708 -0.060551 -11.110818 12.819275 10.779874 -10.967546 -3.515542 0.000000 -0.000000 0.000000 -0.897605 -6.071124 18.429537 0.374821 -1.530705 -2.372864 0.127296 -3.085575 5.133290 6.792134 1.805046 -11.043896 1.462973 -4.389725 4.332777 -24.653868 9.737672 -0.665163 -54.549358 -10.249954 7.706258 9.002685 -37.872680 6.122517 -0.644688 -3.886149 -2.453537 29.009323 -6.017618 -3.215523 57.979282 -1.766995 8.952792 -15.517664 8.414022 -13.366354 5.554208 0.471998 -2.119696 
-1.113314 0.343876 0.992718 98.423847 0.162314 84.992706 -1.612529 3.484971 16.736023 -3.981132 -21.636639 8.896134 6.688820 10.372706 -20.450093 0.000000 -0.000000 0.000000 -5.022719 -2.515889 -28.630473 -0.015995 -10.615754 14.532578 10.355928 -10.745633 -3.707348 0.000000 -0.000000 0.000000 -0.253850 -6.613393 17.941213 0.663602 -1.538650 -2.154518 0.102887 -3.224427 5.044496 6.539751 2.183278 -11.138333 1.200038 -3.853194 3.902323 -24.945418 9.892351 -0.650276 -55.075713 -9.628996 7.807777 8.835387 -35.895340 6.899881 -0.852841 -3.799798 -2.225896 28.901087 -6.188729 -3.255697 57.410587 -1.754940 8.721341 -15.484183 8.242797 -13.485021 5.218355 0.413072 -2.414541 
-1.088014 0.341855 0.991933 98.949519 -0.014677 86.046807 -1.211016 3.516094 16.967915 -4.152450 -21.785865 9.534177 6.457831 10.391066 -19.349353 0.000000 -0.000000 0.000000 -5.322736 -2.027746 -27.964901 0.336585 -8.711060 15.531371 10.017020 -9.688749 -3.717756 0.000000 -0.000000 0.000000 0.042126 -6.676262 17.098330 1.112423 -1.783462 -1.891933 0.182925 -3.502718 4.901835 6.794688 1.609101 -10.734882 1.240406 -4.045707 3.463068 -25.270290 9.811550 -0.429781 -55.435130 -8.860699 7.830708 8.648114 -33.803887 7.355762 -0.955683 -3.511472 -1.775739 28.776959 -6.298678 -3.451837 56.595745 -1.831259 8.614024 -15.205652 8.466464 -12.929129 4.873251 0.095510 -2.214752 
-1.059704 0.338349 0.991880 98.749820 -0.329542 87.529286 -0.919457 3.568529 17.056286 -4.273675 -21.928707 9.697963 5.586136 9.962099 -17.761643 0.000000 -0.000000 0.000000 -4.975801 -1.643610 -27.014303 0.689597 -7.228026 16.033111 9.818302 -8.647209 -3.344515 0.000000 -0.000000 0.000000 0.249102 -6.644795 15.542684 1.412520 -2.000765 -1.679266 0.193012 -3.471017 4.650459 6.574013 1.758261 -10.363683 1.032193 -3.678537 3.126966 -25.501668 10.066706 -0.342618 -55.689294 -7.698833 7.917746 8.504890 -31.833396 7.939663 -1.450670 -3.233703 -1.461482 28.843297 -6.371435 -3.285445 55.997095 -1.749926 8.707710 -15.237714 8.452274 -12.308862 4.775456 0.128921 -2.271768 
-1.032360 0.334522 0.995136 97.876505 -0.071383 88.987498 -0.639724 2.861503 16.397575 -4.296467 -21.454595 11.384640 4.686536 9.457156 -14.759142 0.000000 -0.000000 0.000000 -4.290497 -1.486235 -25.878146 1.253322 -7.860306 12.679828 10.562294 -8.608675 0.543011 0.000000 -0.000000 0.000000 1.311350 -6.541056 14.704560 1.561010 -1.795665 -2.017991 0.155384 -3.171056 4.325660 6.301234 1.092924 -10.107922 1.138290 -3.579888 3.007320 -26.198413 10.574930 -0.445868 -55.661731 -6.976680 7.890404 8.268942 -29.957803 8.620791 -2.006432 -3.055980 -0.421530 28.753791 -6.550977 -3.232151 55.221855 -1.395198 8.631491 -14.743832 8.096882 -12.157718 4.289337 0.174176 -2.278461 
-1.002698 0.330789 0.999909 95.915725 0.045874 89.978851 -0.813480 2.842510 16.176552 -4.423792 -20.858878 13.035344 3.459587 9.138413 -11.752580 0.000000 -0.000000 0.000000 -3.725632 -0.926819 -25.596762 1.630654 -7.513647 13.204263 10.311714 -8.546681 2.905118 0.000000 -0.000000 0.000000 1.774059 -6.169867 13.974723 1.731793 -0.765012 -2.093504 0.349352 -2.871127 4.047184 5.880474 0.869248 -9.846906 1.044480 -2.916951 2.676591 -26.702962 10.490597 -0.381540 -56.079247 -6.017927 8.006763 8.795390 -28.017966 8.449381 -2.495012 -2.841642 -0.029904 28.515087 -6.284286 -2.745214 54.581464 -1.120346 8.799243 -14.561764 8.029114 -11.983423 3.936803 -0.042014 -2.166028 
-0.973483 0.326009 1.005173 94.201879 0.510292 90.130668 -0.577830 2.608729 15.908061 -4.843953 -19.895699 16.197517 1.930703 8.793533 -7.254176 0.000000 -0.000000 0.000000 -2.912185 0.073813 -24.482618 2.229601 -6.914149 13.856820 9.282100 -7.733817 1.802633 0.000000 -0.000000 0.000000 2.309007 -5.627608 13.319642 2.105484 -0.132709 -0.493871 0.573307 -2.462404 3.826269 5.525807 1.034463 -10.696470 0.780804 -2.889150 2.351165 -26.913140 9.854652 -0.405403 -56.809440 -5.897485 8.254273 9.534316 -26.816436 7.765797 -2.871767 -2.690803 -0.002167 28.192431 -5.372649 -2.623507 54.292312 -0.335537 8.691637 -14.503074 7.941231 -11.908592 3.915510 -0.179306 -2.548585 
-0.942005 0.321045 1.010213 92.929692 0.560135 90.542021 -0.763569 2.333385 14.340700 -5.339914 -17.996492 20.446415 0.972513 8.451590 -2.891002 0.000000 -0.000000 0.000000 -1.846272 0.550236 -23.310884 2.385092 -5.874831 14.304824 6.724014 -7.047574 1.237783 0.000000 -0.000000 0.000000 2.605556 -5.272476 12.484915 2.329285 -0.035778 -0.278003 0.547031 -2.244655 3.836237 5.354679 1.038852 -10.385351 0.564203 -2.527082 2.317617 -27.073915 10.071141 -0.544078 -56.881275 -5.408402 8.338852 9.541074 -26.417284 8.143979 -3.488188 -2.167982 -0.506448 28.090127 -4.713615 -1.800301 54.026169 0.518933 9.166653 -14.484984 7.844249 -11.001588 3.916377 -0.298120 -2.489421 
-0.911560 0.315620 1.013982 92.250827 0.376578 90.775535 -0.649466 2.009865 11.513994 -6.216339 -15.243031 26.735375 0.769541 8.209144 0.950972 0.000000 -0.000000 0.000000 -0.739928 0.798023 -21.713130 1.960776 -5.123835 14.370185 3.833847 -6.855211 1.480752 0.000000 -0.000000 0.000000 2.520076 -4.760873 11.876954 2.498777 -0.261530 -0.254727 0.470407 -2.114016 3.759528 5.387225 0.614841 -10.023646 0.889533 -2.349763 2.281091 -26.787342 10.076904 -0.482452 -56.670667 -5.368484 8.467772 8.921022 -26.654464 9.043502 -4.117680 -2.312667 -0.895966 28.005076 -4.473954 -1.806683 54.115653 1.137404 9.443008 -14.244265 8.061598 -10.210262 4.140226 -0.267393 -2.915011 
-0.883256 0.311191 1.015752 92.415061 0.130671 90.804000 -0.633201 0.655696 7.923646 -6.519104 -12.045259 34.463771 3.676382 9.445054 2.253436 0.000000 -0.000000 0.000000 -0.133928 1.081946 -20.211310 1.607628 -4.759886 15.023613 1.445861 -7.492942 0.439136 0.000000 -0.000000 0.000000 2.368915 -4.214262 11.453905 2.615378 -0.619217 -0.592626 0.302389 -2.054941 3.854612 5.794738 -0.122935 -10.074758 1.027988 -2.612533 2.981586 -26.461349 9.401014 0.292407 -56.276615 -5.902224 8.552598 8.734848 -28.085285 9.551232 -4.952219 -1.676341 -1.193492 28.109291 -4.021746 -1.737931 54.304665 1.508067 9.648369 -14.494779 8.351667 -9.784990 4.766822 -0.403215 -3.082681 
-0.855353 0.307453 1.017780 92.821707 0.013219 90.181516 -0.358310 -0.253695 4.768516 -7.909861 -10.245108 42.298950 3.892823 9.438082 0.576564 0.000000 -0.000000 0.000000 0.132131 1.227986 -17.893527 1.625026 -4.549068 16.067367 0.577025 -7.868243 -1.747959 0.000000 -0.000000 0.000000 2.475440 -3.954352 11.869352 2.600476 -0.941441 -0.866592 -0.028398 -1.744085 3.752604 5.936521 -0.708933 -10.212361 1.218598 -2.971048 3.384103 -26.969768 8.531469 0.325825 -55.038773 -6.578894 8.438480 8.328958 -29.700756 9.432930 -4.689909 -1.758464 -1.034318 28.538834 -3.513767 -2.472406 54.256358 1.425266 9.545361 -14.401375 8.727729 -9.502262 5.018229 -0.412548 -3.000006 
-0.828096 0.303718 1.019631 93.022065 -0.173776 89.236382 0.199863 -0.662876 1.955720 -9.037034 -7.470141 48.027940 2.459474 8.607341 -1.676856 0.000000 -0.000000 0.000000 0.435059 0.522086 -15.202126 1.658514 -4.226728 16.854607 0.535556 -7.708886 -3.832847 0.000000 -0.000000 0.000000 2.350041 -3.132220 12.182739 2.559353 -1.367977 -0.686746 -0.208758 -1.656302 3.621992 5.817127 -0.564255 -10.231182 1.061960 -3.185570 3.797464 -27.398575 7.451305 0.013996 -54.462828 -7.512526 8.223769 8.604040 -31.082771 8.672186 -4.185265 -1.673088 -1.269911 28.885734 -2.580761 -2.506678 54.274947 2.292283 9.310114 -14.330930 8.378862 -9.802945 5.129669 -0.587124 -3.391915 
